<svg width="82" height="76" viewBox="0 0 82 76" fill="none" xmlns="http://www.w3.org/2000/svg">
<rect y="0.9375" width="82" height="75" rx="17" fill="#E7E7E7"/>
<path d="M46.125 38.4375V18.4375H29.25C25.1062 18.4375 21.75 22.0175 21.75 26.4375V42.4375M46.125 38.4375C46.125 40.6375 44.4375 42.4375 42.375 42.4375H21.75M46.125 38.4375V24.4375H49.575C50.925 24.4375 52.1625 25.2175 52.8375 26.4575L56.0438 32.4375M21.75 42.4375V48.4375C21.75 51.7575 24.2625 54.4375 27.375 54.4375H29.25M59.25 42.4375V48.4375C59.25 51.7575 56.7375 54.4375 53.625 54.4375H51.75M59.25 42.4375H53.625C52.5937 42.4375 51.75 41.5375 51.75 40.4375V34.4375C51.75 33.3375 52.5937 32.4375 53.625 32.4375H56.0438M59.25 42.4375V38.4375L56.0438 32.4375M51.75 54.4375C51.75 52.2375 50.0625 50.4375 48 50.4375M51.75 54.4375C51.75 56.6466 50.0711 58.4375 48 58.4375C45.9289 58.4375 44.25 56.6466 44.25 54.4375M51.75 54.4375C51.75 52.2284 50.0711 50.4375 48 50.4375M48 50.4375C45.9375 50.4375 44.25 52.2375 44.25 54.4375M48 50.4375C45.9289 50.4375 44.25 52.2284 44.25 54.4375M44.25 54.4375H36.75M36.75 54.4375C36.75 52.2375 35.0625 50.4375 33 50.4375M36.75 54.4375C36.75 56.6466 35.0711 58.4375 33 58.4375C30.9289 58.4375 29.25 56.6466 29.25 54.4375M36.75 54.4375C36.75 52.2284 35.0711 50.4375 33 50.4375M33 50.4375C30.9375 50.4375 29.25 52.2375 29.25 54.4375M33 50.4375C30.9289 50.4375 29.25 52.2284 29.25 54.4375" stroke="#9F7D51" stroke-width="1.5" stroke-linecap="round" stroke-linejoin="round"/>
</svg>
