<svg width="82" height="76" viewBox="0 0 82 76" fill="none" xmlns="http://www.w3.org/2000/svg">
<rect y="0.9375" width="82" height="75" rx="17" fill="#E7E7E7"/>
<path d="M55.625 39.9V48.225C55.625 55.245 49.0775 60.9375 41 60.9375C32.9225 60.9375 26.375 55.245 26.375 48.225V39.9M55.625 39.9C55.625 46.92 49.0775 51.9375 41 51.9375C32.9225 51.9375 26.375 46.92 26.375 39.9M55.625 39.9V28.65M26.375 39.9V28.65M55.625 28.65C55.625 30.6975 55.0625 32.5875 54.0725 34.2075C51.665 38.1675 46.715 40.6875 41 40.6875C35.285 40.6875 30.335 38.1675 27.9275 34.2075C26.9375 32.5875 26.375 30.6975 26.375 28.65M55.625 28.65C55.625 25.14 53.9825 21.9675 51.35 19.65C48.695 17.355 45.05 15.9375 41 15.9375M26.375 28.65C26.375 25.14 28.0175 21.9675 30.65 19.6725C33.305 17.355 36.95 15.9375 41 15.9375M26.375 28.65C26.375 21.63 32.9225 15.9375 41 15.9375" stroke="#9F7D51" stroke-width="1.5" stroke-linecap="round" stroke-linejoin="round"/>
</svg>
