<svg width="26" height="26" viewBox="0 0 26 26" fill="none" xmlns="http://www.w3.org/2000/svg">
<path d="M17.4091 5.93035C17.4091 8.29615 15.408 10.4061 13 10.4061C10.592 10.4061 8.59091 8.29615 8.59091 5.93035C8.59091 3.51671 10.6374 1.25 13 1.25C15.3626 1.25 17.4091 3.51671 17.4091 5.93035ZM24.75 19.7687C24.75 20.9509 24.0871 22.1514 22.2452 23.1115C20.3702 24.0888 17.3655 24.7502 13 24.7502C8.63445 24.7502 5.62977 24.0888 3.75483 23.1115C1.91294 22.1514 1.25 20.9509 1.25 19.7687C1.25 18.7334 2.18275 17.4889 4.40911 16.4444C6.55603 15.4372 9.59229 14.7871 13 14.7871C16.4077 14.7871 19.444 15.4372 21.5909 16.4444C23.8172 17.4889 24.75 18.7334 24.75 19.7687Z" stroke="#3D4541" stroke-width="2"/>
</svg>
